# xmcd CD database file
#
# Track frame offsets:
#	150
#	12846
#	26576
#	38091
#	54663
#	65491
#	78642
#	95272
#	109455
#	123612
#	141405
#	154453
#
# Disc length: 2233 seconds
#
# Revision: 0
# Processed by: cddbd v1.5.1PL0 Copyright (c) Steve Scherf et al.
# Submitted via: CDex 1.51
#
DISCID=a908b70c
DTITLE=Nathan Charlton - Sounds of the Bush
DYEAR=1900
DGENRE=Country
TTITLE0=Sounds of the Bush
TTITLE1=Tex Buddy and Slim
TTITLE2=The Television Bushman
TTITLE3=Bottle full of Hate
TTITLE4=This Old Guitar was There
TTITLE5=A Place I call Home
TTITLE6=A Horse Called Music
TTITLE7=My Old Dusty Shed
TTITLE8=Thumbin' my Way Back Home
TTITLE9=The Rodeo Ball
TTITLE10=Trumby's Mate
TTITLE11=Pale Face Adios
EXTD=
EXTT0=
EXTT1=
EXTT2=
EXTT3=
EXTT4=
EXTT5=
EXTT6=
EXTT7=
EXTT8=
EXTT9=
EXTT10=
EXTT11=
PLAYORDER=
